<svg width="64" height="64" viewBox="0 0 64 64" fill="none" xmlns="http://www.w3.org/2000/svg">
  <g stroke="#5e2d12" stroke-width="3" stroke-linecap="round" stroke-linejoin="round">
    <!-- Coffee cup body -->
    <path d="M16 24h32a0 0 0 0 1 0 0v14a12 12 0 0 1-12 12H28a12 12 0 0 1-12-12V24a0 0 0 0 1 0 0Z" />
    <!-- Handle -->
    <path d="M48 28c4 0 6 2 6 5s-2 5-6 5" />
    <!-- Steam lines -->
    <path d="M24 12c0 4-2 6-2 8" />
    <path d="M32 10c0 4-2 6-2 8" />
    <path d="M40 12c0 4-2 6-2 8" />
  </g>
</svg>
